PathFileType	4	(X/Y/Z)	T00_Trial_0-99.trc
DataRate	CameraRate	NumFrames	NumMarkers	Units	OrigDataRate	OrigDataStartFrame	OrigNumFrames
60	60	6	22	m	60	61	99
Frame#	Time	Hip			RHip			RKnee			RAnkle			RBigToe			RSmallToe			RHeel			LHip			LKnee			LAnkle			LBigToe			LSmallToe			LHeel			Neck			Head			Nose			RShoulder			RElbow			RWrist			LShoulder			LElbow			LWrist		
		X1	Y1	Z1	X2	Y2	Z2	X3	Y3	Z3	X4	Y4	Z4	X5	Y5	Z5	X6	Y6	Z6	X7	Y7	Z7	X8	Y8	Z8	X9	Y9	Z9	X10	Y10	Z10	X11	Y11	Z11	X12	Y12	Z12	X13	Y13	Z13	X14	Y14	Z14	X15	Y15	Z15	X16	Y16	Z16	X17	Y17	Z17	X18	Y18	Z18	X19	Y19	Z19	X20	Y20	Z20	X21	Y21	Z21	X22	Y22	Z22
61	1.0166666666666666	-0.14890377426329274	0.9715289725472445	-1.0791507176854547	-0.07053637426433776	0.9347695164448194	-0.7802800800000438	-0.22580768072066829	0.5095540604086847	-1.2314465746016785	-0.5175094730869209	0.2961597927051235	-0.8134068161098813	-0.49512659792553976	0.24649571989488858	-0.651817107407771	-0.5420502260888258	0.2546341564769705	-0.6838941649231836	-0.5189976057582307	0.247171324744183	-0.839168183527297	-0.06194480767532144	0.9093023910668383	-1.0668071195828979	-0.06847987615582316	0.5025702490330243	-0.9894223717318457	-0.025455534871246254	0.14568282991553175	-1.1526458266381052	-0.007007757566636474	0.07595856085616488	-0.9853032518917447	0.021177603801479775	0.0732319213376941	-1.036981609621329	-0.016057252155320993	0.09644504591082284	-1.2031767756855791	0.22955798528798085	1.337533100911469	-0.8993007363697562	0.0716308299674048	1.6941985096723564	-1.1613362201070678	0.023482133754419203	1.5266114702982818	-1.109965500868608	0.04053577021428638	1.4327887769688683	-0.9359916862514482	-0.21050823710541727	1.4813510042799367	-0.9072707791486182	-0.09071921234322897	1.592881127476641	-0.7321034506292292	0.30737279863359046	1.1878301137931866	-1.0098010744089412	0.38028425767118085	0.9023789515521338	-1.030173679058469	0.4177274721225303	0.6677287548897665	-0.9595145014426371
62	1.0333333333333334	-0.1470717921263024	0.9721681816699318	-1.0698171383519317	-0.07053637426433776	0.9347695164448194	-0.7802800800000438	-0.22580768072066829	0.5095540604086847	-1.2314465746016785	-0.47191931849380137	0.27283171377958826	-0.8079426399519563	-0.45800385221395734	0.23542449173582802	-0.64980889313831	-0.5179493889122181	0.2604633811548591	-0.6954856987635429	-0.4750533966467479	0.2162428981872579	-0.820651634088992	-0.06040333970500448	0.9057245502793131	-1.0591610911632399	-0.06822190488788736	0.5031788146569267	-0.9911454451942574	-0.025194502134801747	0.14495398466219778	-1.1468731577556226	-0.0007950473427782085	0.08786792741467907	-0.9930226681040488	0.024357629996646892	0.0774416514593895	-1.0381335574932973	-0.017893937769620394	0.09883565128247059	-1.200748744990259	0.22275658751232	1.349190796416419	-0.9008926809373599	0.0716308299674048	1.6941985096723564	-1.1613362201070678	0.023482133754419203	1.5266114702982818	-1.109965500868608	0.030745809715750857	1.4386296397805902	-0.9268486848104344	-0.22382286336139737	1.4767112903598387	-0.8855088432629087	-0.10766248358743591	1.5838149682088993	-0.7139452741611019	0.30410893432836905	1.198413850428773	-1.0029442955805872	0.37339859780335055	0.9122691149070759	-1.0280069077280216	0.4168894019198839	0.6699795744960407	-0.948286278293034
63	1.05	-0.14556105678610218	0.970988764631413	-1.0712584850574984	-0.07053637426433776	0.9347695164448194	-0.7802800800000438	-0.22580768072066829	0.5095540604086847	-1.2314465746016785	-0.42097949180485644	0.25512183742524525	-0.7910908025517027	-0.4015658581171152	0.21635481641693918	-0.6616985374418937	-0.459685215041428	0.23754963425254014	-0.698805622542344	-0.4166954837623114	0.2001576854248501	-0.7893471102425782	-0.05929574755446212	0.9062637520947849	-1.0537959490982265	-0.0640902909007794	0.49260629127587796	-0.9891128581266875	-0.023579178214549586	0.14600483184289792	-1.1469638613361743	-0.006004717907887684	0.08953004903636823	-1.0003463957950898	0.020874963043297817	0.07548383946231663	-1.041003051633798	-0.016483517794635125	0.10084271368594457	-1.2000921919450211	0.21612693769949187	1.351993583279097	-0.8818084961180441	0.0716308299674048	1.6941985096723564	-1.1613362201070678	0.023482133754419203	1.5266114702982818	-1.109965500868608	0.018666549599128286	1.4362061490811882	-0.9198771146729624	-0.23311653794671613	1.4716838285852796	-0.8820824257880843	-0.12460575483164286	1.5747488089411577	-0.6957870976929744	0.30135040717742406	1.2045397106082179	-0.9946272910990166	0.37303350874190777	0.9174666707125294	-1.0211867962115848	0.41619174905990475	0.6746095987174476	-0.9375153742671731
64	1.0666666666666667	-0.14335293215984793	0.9694026373835264	-1.0652038799314685	-0.07053637426433776	0.9347695164448194	-0.7802800800000438	-0.22580768072066829	0.5095540604086847	-1.2314465746016785	-0.38192546081781686	0.2505981021323405	-0.7700721036643932	-0.35539529289640603	0.1927370663349368	-0.6200469447404562	-0.4140190168458682	0.21489632282772006	-0.6648671527703549	-0.3852804441446768	0.20340920797216586	-0.7749527760900852	-0.05703632817386564	0.9061247429429093	-1.0499479079500529	-0.05995867691367145	0.48203376789482927	-0.9870802710591176	-0.021366025335587974	0.14228413323227748	-1.1524324323457453	0.004830235121728271	0.08182303231495873	-1.0108645047351	0.028677136292878266	0.07292698722024622	-1.048791535401162	-0.016842394904987856	0.09386389543668648	-1.1989300807885206	0.20742360495172604	1.358183102894537	-0.8807079649212821	0.0716308299674048	1.6941985096723564	-1.1613362201070678	0.023482133754419203	1.5266114702982818	-1.109965500868608	0.013119228759126415	1.4407758507785857	-0.9121159518579095	-0.2484952199066954	1.4643104347003102	-0.8643189280899083	-0.12763525713680968	1.5709533112796494	-0.6886846308993881	0.29887494752469623	1.2118113160700492	-0.9888249524794138	0.3682745351835102	0.9279930828335169	-1.0140532637983841	0.41526844339111935	0.6767604855162378	-0.9335407588842509
65	1.0833333333333333	-0.14114480753359368	0.9678165101356397	-1.0591492748054383	-0.07053637426433776	0.9347695164448194	-0.7802800800000438	-0.3117787581912112	0.6174515856553551	-0.8060781124351761	-0.34944612753170096	0.25889273076717034	-0.7507605183685645	-0.3056740296366098	0.20871584792975784	-0.5949190981992848	-0.36056871459008966	0.20978488098233367	-0.619838344655604	-0.35663363671818804	0.20517467499185757	-0.7617440885318542	-0.05477690879326917	0.9059857337910338	-1.046099866801879	-0.059899374935759114	0.4905358475375825	-0.9855448609054226	-0.02245763952831884	0.14354774004168883	-1.1527181289349784	0.007968224313367649	0.07607921180492092	-1.0093612232966531	0.033202893030058404	0.06551773184084735	-1.0419461266003835	-0.015144049368191893	0.09742218597794193	-1.2065076448625138	0.2095186671894751	1.3572022545257971	-0.874372047660739	0.0716308299674048	1.6941985096723564	-1.1613362201070678	0.023482133754419203	1.5266114702982818	-1.109965500868608	0.011392466559599274	1.4350476570208874	-0.9001605130231216	-0.25105364855684587	1.4570713251789558	-0.8575701227304716	-0.14760368563777793	1.5528237949477843	-0.6767768505556748	0.2935804416730642	1.2127641015130635	-0.9810107080706164	0.3701436010056361	0.9281044452002136	-1.0106873699602412	0.4131234792894817	0.6816915437782192	-0.9222161005047269
66	1.1	-0.13893668290733943	0.9662303828877532	-1.0530946696794081	-0.07053637426433776	0.9347695164448194	-0.7802800800000438	-0.2828807544188671	0.5889834857702976	-0.7768160307599088	-0.3167934180170194	0.24631075012736545	-0.760483158284818	-0.2574206938874567	0.19103561945982367	-0.5891256646442999	-0.3162662185964383	0.19235170775407748	-0.6110317518658702	-0.32537881129480833	0.2086989783132709	-0.7866273107335008	-0.052517489412672695	0.905846724639158	-1.0422518256537054	-0.05302229757974098	0.48607371051484666	-0.9894179154016808	-0.02378504173680278	0.14135080883198903	-1.1482715305953075	0.007196547674141848	0.07351625578523896	-1.005229897441406	0.037923908002595055	0.05837615143071407	-1.0446108005382575	-0.020832116748874883	0.10275550700531652	-1.20638312508398	0.19722136155323525	1.3655214997050031	-0.8706500271778982	0.0716308299674048	1.6941985096723564	-1.1613362201070678	0.023482133754419203	1.5266114702982818	-1.109965500868608	-0.004617647231487655	1.437568932168095	-0.8876204714433811	-0.25865691855183864	1.452700774490794	-0.8596137661056136	-0.15201387688576803	1.553289484273756	-0.6814589083153425	0.2939058762414573	1.222056276086263	-0.9730732087595789	0.36447377600490516	0.9453731255059928	-1.0077356705021716	0.4138096017708222	0.6974514092428783	-0.9179906589990856
